<mxfile host="app.diagrams.net" agent="Mozilla/5.0 (X11; Linux x86_64) AppleWebKit/537.36 (KHTML, like Gecko) Chrome/135.0.0.0 Safari/537.36" version="26.2.13">
  <diagram id="C5RBs43oDa-KdzZeNtuy" name="Page-1">
    <mxGraphModel dx="985" dy="578" grid="1" gridSize="10" guides="1" tooltips="1" connect="1" arrows="1" fold="1" page="1" pageScale="1" pageWidth="827" pageHeight="1169" math="0" shadow="0">
      <root>
        <mxCell id="WIyWlLk6GJQsqaUBKTNV-0" />
        <mxCell id="WIyWlLk6GJQsqaUBKTNV-1" parent="WIyWlLk6GJQsqaUBKTNV-0" />
        <mxCell id="V_N-slS19JyeYz-SIt-K-3" value="" style="edgeStyle=orthogonalEdgeStyle;rounded=0;orthogonalLoop=1;jettySize=auto;html=1;" edge="1" parent="WIyWlLk6GJQsqaUBKTNV-1" source="WIyWlLk6GJQsqaUBKTNV-3" target="V_N-slS19JyeYz-SIt-K-2">
          <mxGeometry relative="1" as="geometry" />
        </mxCell>
        <mxCell id="WIyWlLk6GJQsqaUBKTNV-3" value="Admin adds or updates student&#39;s information" style="rounded=1;whiteSpace=wrap;html=1;fontSize=12;glass=0;strokeWidth=1;shadow=0;" parent="WIyWlLk6GJQsqaUBKTNV-1" vertex="1">
          <mxGeometry x="140" y="75" width="120" height="40" as="geometry" />
        </mxCell>
        <mxCell id="V_N-slS19JyeYz-SIt-K-15" style="edgeStyle=orthogonalEdgeStyle;rounded=0;orthogonalLoop=1;jettySize=auto;html=1;entryX=0;entryY=0.5;entryDx=0;entryDy=0;" edge="1" parent="WIyWlLk6GJQsqaUBKTNV-1" source="V_N-slS19JyeYz-SIt-K-0" target="V_N-slS19JyeYz-SIt-K-11">
          <mxGeometry relative="1" as="geometry">
            <Array as="points">
              <mxPoint x="110" y="95" />
              <mxPoint x="110" y="165" />
            </Array>
          </mxGeometry>
        </mxCell>
        <mxCell id="V_N-slS19JyeYz-SIt-K-0" value="" style="ellipse;html=1;shape=startState;fillColor=#000000;strokeColor=#ff0000;" vertex="1" parent="WIyWlLk6GJQsqaUBKTNV-1">
          <mxGeometry x="70" y="80" width="30" height="30" as="geometry" />
        </mxCell>
        <mxCell id="V_N-slS19JyeYz-SIt-K-1" value="" style="edgeStyle=orthogonalEdgeStyle;html=1;verticalAlign=bottom;endArrow=open;endSize=8;strokeColor=#ff0000;rounded=0;entryX=0;entryY=0.5;entryDx=0;entryDy=0;" edge="1" source="V_N-slS19JyeYz-SIt-K-0" parent="WIyWlLk6GJQsqaUBKTNV-1" target="WIyWlLk6GJQsqaUBKTNV-3">
          <mxGeometry relative="1" as="geometry">
            <mxPoint x="140" y="100" as="targetPoint" />
          </mxGeometry>
        </mxCell>
        <mxCell id="V_N-slS19JyeYz-SIt-K-2" value="Stores information in Students table" style="rounded=1;whiteSpace=wrap;html=1;fontSize=12;glass=0;strokeWidth=1;shadow=0;" vertex="1" parent="WIyWlLk6GJQsqaUBKTNV-1">
          <mxGeometry x="294" y="75" width="120" height="40" as="geometry" />
        </mxCell>
        <mxCell id="V_N-slS19JyeYz-SIt-K-4" value="START" style="text;html=1;align=center;verticalAlign=middle;resizable=0;points=[];autosize=1;strokeColor=none;fillColor=none;" vertex="1" parent="WIyWlLk6GJQsqaUBKTNV-1">
          <mxGeometry x="55" y="58" width="60" height="30" as="geometry" />
        </mxCell>
        <mxCell id="V_N-slS19JyeYz-SIt-K-14" value="" style="edgeStyle=orthogonalEdgeStyle;rounded=0;orthogonalLoop=1;jettySize=auto;html=1;" edge="1" parent="WIyWlLk6GJQsqaUBKTNV-1" source="V_N-slS19JyeYz-SIt-K-11" target="V_N-slS19JyeYz-SIt-K-13">
          <mxGeometry relative="1" as="geometry" />
        </mxCell>
        <mxCell id="V_N-slS19JyeYz-SIt-K-11" value="Scheduler or Trigger Fires" style="rounded=1;whiteSpace=wrap;html=1;fontSize=12;glass=0;strokeWidth=1;shadow=0;" vertex="1" parent="WIyWlLk6GJQsqaUBKTNV-1">
          <mxGeometry x="155" y="140" width="90" height="50" as="geometry" />
        </mxCell>
        <mxCell id="V_N-slS19JyeYz-SIt-K-13" value="Get all students where enabled = True" style="rounded=1;whiteSpace=wrap;html=1;fontSize=12;glass=0;strokeWidth=1;shadow=0;" vertex="1" parent="WIyWlLk6GJQsqaUBKTNV-1">
          <mxGeometry x="294" y="140" width="120" height="50" as="geometry" />
        </mxCell>
        <mxCell id="V_N-slS19JyeYz-SIt-K-16" value="Appt Reminder Flow" style="shape=umlFrame;whiteSpace=wrap;html=1;pointerEvents=0;recursiveResize=0;container=1;collapsible=0;width=160;verticalAlign=middle;" vertex="1" parent="WIyWlLk6GJQsqaUBKTNV-1">
          <mxGeometry x="7" y="20" width="820" height="634.5" as="geometry" />
        </mxCell>
        <mxCell id="V_N-slS19JyeYz-SIt-K-57" value="Is Day Before Lesson" style="rhombus;whiteSpace=wrap;html=1;rounded=1;glass=0;strokeWidth=1;shadow=0;verticalAlign=middle;spacingBottom=-10;" vertex="1" parent="V_N-slS19JyeYz-SIt-K-16">
          <mxGeometry x="572" y="120" width="90" height="80" as="geometry" />
        </mxCell>
        <mxCell id="V_N-slS19JyeYz-SIt-K-58" value="" style="edgeStyle=orthogonalEdgeStyle;rounded=0;orthogonalLoop=1;jettySize=auto;html=1;" edge="1" parent="V_N-slS19JyeYz-SIt-K-16" source="V_N-slS19JyeYz-SIt-K-17">
          <mxGeometry relative="1" as="geometry">
            <mxPoint x="572" y="161" as="targetPoint" />
          </mxGeometry>
        </mxCell>
        <mxCell id="V_N-slS19JyeYz-SIt-K-17" value="For Each Student" style="ellipse;whiteSpace=wrap;html=1;rounded=1;glass=0;strokeWidth=1;shadow=0;" vertex="1" parent="V_N-slS19JyeYz-SIt-K-16">
          <mxGeometry x="462" y="152" width="70" height="75" as="geometry" />
        </mxCell>
        <mxCell id="V_N-slS19JyeYz-SIt-K-22" value="BUILD message" style="rounded=1;whiteSpace=wrap;html=1;fontSize=12;glass=0;strokeWidth=1;shadow=0;" vertex="1" parent="V_N-slS19JyeYz-SIt-K-16">
          <mxGeometry x="457" y="302" width="90" height="50" as="geometry" />
        </mxCell>
        <mxCell id="V_N-slS19JyeYz-SIt-K-68" value="" style="edgeStyle=orthogonalEdgeStyle;rounded=0;orthogonalLoop=1;jettySize=auto;html=1;" edge="1" parent="V_N-slS19JyeYz-SIt-K-16" source="V_N-slS19JyeYz-SIt-K-63" target="V_N-slS19JyeYz-SIt-K-23">
          <mxGeometry relative="1" as="geometry" />
        </mxCell>
        <mxCell id="V_N-slS19JyeYz-SIt-K-23" value="FORMAT as email-to-SMS/email/ph_call using phone number + carrier" style="rounded=1;whiteSpace=wrap;html=1;fontSize=12;glass=0;strokeWidth=1;shadow=0;" vertex="1" parent="V_N-slS19JyeYz-SIt-K-16">
          <mxGeometry x="557" y="302" width="120" height="60" as="geometry" />
        </mxCell>
        <mxCell id="V_N-slS19JyeYz-SIt-K-69" value="" style="edgeStyle=orthogonalEdgeStyle;rounded=0;orthogonalLoop=1;jettySize=auto;html=1;" edge="1" parent="V_N-slS19JyeYz-SIt-K-16" source="V_N-slS19JyeYz-SIt-K-63" target="V_N-slS19JyeYz-SIt-K-24">
          <mxGeometry relative="1" as="geometry">
            <Array as="points">
              <mxPoint x="705" y="255" />
              <mxPoint x="705" y="255" />
            </Array>
          </mxGeometry>
        </mxCell>
        <mxCell id="V_N-slS19JyeYz-SIt-K-24" value="SEND via SMTP (ProtonBridge)" style="rounded=1;whiteSpace=wrap;html=1;fontSize=12;glass=0;strokeWidth=1;shadow=0;" vertex="1" parent="V_N-slS19JyeYz-SIt-K-16">
          <mxGeometry x="687" y="302" width="90" height="50" as="geometry" />
        </mxCell>
        <mxCell id="V_N-slS19JyeYz-SIt-K-45" value="" style="edgeStyle=orthogonalEdgeStyle;rounded=0;orthogonalLoop=1;jettySize=auto;html=1;entryX=1;entryY=0.5;entryDx=0;entryDy=0;" edge="1" parent="V_N-slS19JyeYz-SIt-K-16" source="V_N-slS19JyeYz-SIt-K-39" target="V_N-slS19JyeYz-SIt-K-46">
          <mxGeometry relative="1" as="geometry">
            <mxPoint x="537" y="482" as="targetPoint" />
            <Array as="points">
              <mxPoint x="562" y="532" />
              <mxPoint x="562" y="472" />
            </Array>
          </mxGeometry>
        </mxCell>
        <mxCell id="V_N-slS19JyeYz-SIt-K-47" value="YES" style="edgeLabel;html=1;align=center;verticalAlign=middle;resizable=0;points=[];" vertex="1" connectable="0" parent="V_N-slS19JyeYz-SIt-K-45">
          <mxGeometry x="0.1521" y="-4" relative="1" as="geometry">
            <mxPoint x="13" as="offset" />
          </mxGeometry>
        </mxCell>
        <mxCell id="V_N-slS19JyeYz-SIt-K-39" value="Send&lt;div&gt;&amp;nbsp;Successful&lt;/div&gt;" style="strokeWidth=2;html=1;shape=mxgraph.flowchart.decision;whiteSpace=wrap;" vertex="1" parent="V_N-slS19JyeYz-SIt-K-16">
          <mxGeometry x="592" y="482" width="100" height="100" as="geometry" />
        </mxCell>
        <mxCell id="V_N-slS19JyeYz-SIt-K-46" value="STORE in Messages table w/ direction = &quot;outgoing&quot;, status = &quot;delivered&quot;" style="rounded=1;whiteSpace=wrap;html=1;fontSize=12;glass=0;strokeWidth=1;shadow=0;" vertex="1" parent="V_N-slS19JyeYz-SIt-K-16">
          <mxGeometry x="407" y="442" width="120" height="60" as="geometry" />
        </mxCell>
        <mxCell id="V_N-slS19JyeYz-SIt-K-50" value="STORE in Messages table w/ direction = &quot;outgoing&quot;, status = &quot;failed&quot;" style="rounded=1;whiteSpace=wrap;html=1;fontSize=12;glass=0;strokeWidth=1;shadow=0;" vertex="1" parent="V_N-slS19JyeYz-SIt-K-16">
          <mxGeometry x="407" y="542" width="120" height="60" as="geometry" />
        </mxCell>
        <mxCell id="V_N-slS19JyeYz-SIt-K-51" style="edgeStyle=orthogonalEdgeStyle;rounded=0;orthogonalLoop=1;jettySize=auto;html=1;entryX=1;entryY=0.5;entryDx=0;entryDy=0;" edge="1" parent="V_N-slS19JyeYz-SIt-K-16" target="V_N-slS19JyeYz-SIt-K-50">
          <mxGeometry relative="1" as="geometry">
            <mxPoint x="592" y="532" as="sourcePoint" />
            <mxPoint x="504.5" y="582" as="targetPoint" />
            <Array as="points">
              <mxPoint x="562" y="532" />
              <mxPoint x="562" y="572" />
            </Array>
          </mxGeometry>
        </mxCell>
        <mxCell id="V_N-slS19JyeYz-SIt-K-52" value="NO" style="text;html=1;align=center;verticalAlign=middle;resizable=0;points=[];autosize=1;strokeColor=none;fillColor=none;" vertex="1" parent="V_N-slS19JyeYz-SIt-K-16">
          <mxGeometry x="562" y="542" width="40" height="30" as="geometry" />
        </mxCell>
        <mxCell id="V_N-slS19JyeYz-SIt-K-60" value="" style="edgeStyle=orthogonalEdgeStyle;rounded=0;orthogonalLoop=1;jettySize=auto;html=1;" edge="1" parent="V_N-slS19JyeYz-SIt-K-16" target="V_N-slS19JyeYz-SIt-K-59">
          <mxGeometry relative="1" as="geometry">
            <mxPoint x="662" y="161" as="sourcePoint" />
          </mxGeometry>
        </mxCell>
        <mxCell id="V_N-slS19JyeYz-SIt-K-59" value="Do Nothing" style="whiteSpace=wrap;html=1;rounded=1;glass=0;strokeWidth=1;shadow=0;" vertex="1" parent="V_N-slS19JyeYz-SIt-K-16">
          <mxGeometry x="705" y="141" width="85" height="40" as="geometry" />
        </mxCell>
        <mxCell id="V_N-slS19JyeYz-SIt-K-61" value="NO" style="text;html=1;align=center;verticalAlign=middle;resizable=0;points=[];autosize=1;strokeColor=none;fillColor=none;" vertex="1" parent="V_N-slS19JyeYz-SIt-K-16">
          <mxGeometry x="662" y="130" width="40" height="30" as="geometry" />
        </mxCell>
        <mxCell id="V_N-slS19JyeYz-SIt-K-64" style="edgeStyle=orthogonalEdgeStyle;rounded=0;orthogonalLoop=1;jettySize=auto;html=1;" edge="1" parent="V_N-slS19JyeYz-SIt-K-16" target="V_N-slS19JyeYz-SIt-K-63">
          <mxGeometry relative="1" as="geometry">
            <mxPoint x="617" y="202" as="sourcePoint" />
          </mxGeometry>
        </mxCell>
        <mxCell id="V_N-slS19JyeYz-SIt-K-63" value="" style="html=1;points=[];perimeter=orthogonalPerimeter;fillColor=strokeColor;direction=south;" vertex="1" parent="V_N-slS19JyeYz-SIt-K-16">
          <mxGeometry x="467" y="252" width="300" height="5" as="geometry" />
        </mxCell>
        <mxCell id="V_N-slS19JyeYz-SIt-K-70" style="edgeStyle=orthogonalEdgeStyle;rounded=0;orthogonalLoop=1;jettySize=auto;html=1;exitX=0.88;exitY=0.883;exitDx=0;exitDy=0;exitPerimeter=0;" edge="1" parent="V_N-slS19JyeYz-SIt-K-16" source="V_N-slS19JyeYz-SIt-K-63" target="V_N-slS19JyeYz-SIt-K-22">
          <mxGeometry relative="1" as="geometry" />
        </mxCell>
        <mxCell id="V_N-slS19JyeYz-SIt-K-91" value="" style="edgeStyle=orthogonalEdgeStyle;rounded=0;orthogonalLoop=1;jettySize=auto;html=1;exitX=1.12;exitY=0.419;exitDx=0;exitDy=0;exitPerimeter=0;" edge="1" parent="V_N-slS19JyeYz-SIt-K-16" source="V_N-slS19JyeYz-SIt-K-71" target="V_N-slS19JyeYz-SIt-K-39">
          <mxGeometry relative="1" as="geometry" />
        </mxCell>
        <mxCell id="V_N-slS19JyeYz-SIt-K-71" value="" style="html=1;points=[];perimeter=orthogonalPerimeter;fillColor=strokeColor;direction=south;" vertex="1" parent="V_N-slS19JyeYz-SIt-K-16">
          <mxGeometry x="467" y="392" width="300" height="5" as="geometry" />
        </mxCell>
        <mxCell id="V_N-slS19JyeYz-SIt-K-74" style="edgeStyle=orthogonalEdgeStyle;rounded=0;orthogonalLoop=1;jettySize=auto;html=1;entryX=-0.56;entryY=0.115;entryDx=0;entryDy=0;entryPerimeter=0;" edge="1" parent="V_N-slS19JyeYz-SIt-K-16" source="V_N-slS19JyeYz-SIt-K-24" target="V_N-slS19JyeYz-SIt-K-71">
          <mxGeometry relative="1" as="geometry" />
        </mxCell>
        <mxCell id="V_N-slS19JyeYz-SIt-K-75" style="edgeStyle=orthogonalEdgeStyle;rounded=0;orthogonalLoop=1;jettySize=auto;html=1;entryX=0;entryY=0.5;entryDx=0;entryDy=0;entryPerimeter=0;" edge="1" parent="V_N-slS19JyeYz-SIt-K-16" source="V_N-slS19JyeYz-SIt-K-23" target="V_N-slS19JyeYz-SIt-K-71">
          <mxGeometry relative="1" as="geometry" />
        </mxCell>
        <mxCell id="V_N-slS19JyeYz-SIt-K-76" style="edgeStyle=orthogonalEdgeStyle;rounded=0;orthogonalLoop=1;jettySize=auto;html=1;exitX=0.5;exitY=1;exitDx=0;exitDy=0;entryX=0;entryY=0.883;entryDx=0;entryDy=0;entryPerimeter=0;" edge="1" parent="V_N-slS19JyeYz-SIt-K-16" source="V_N-slS19JyeYz-SIt-K-22" target="V_N-slS19JyeYz-SIt-K-71">
          <mxGeometry relative="1" as="geometry" />
        </mxCell>
        <mxCell id="V_N-slS19JyeYz-SIt-K-77" value="YES" style="text;html=1;align=center;verticalAlign=middle;resizable=0;points=[];autosize=1;strokeColor=none;fillColor=none;" vertex="1" parent="V_N-slS19JyeYz-SIt-K-16">
          <mxGeometry x="617" y="210" width="50" height="30" as="geometry" />
        </mxCell>
        <mxCell id="V_N-slS19JyeYz-SIt-K-79" value="" style="html=1;points=[];perimeter=orthogonalPerimeter;fillColor=strokeColor;direction=west;" vertex="1" parent="V_N-slS19JyeYz-SIt-K-16">
          <mxGeometry x="353" y="430" width="5" height="184.5" as="geometry" />
        </mxCell>
        <mxCell id="V_N-slS19JyeYz-SIt-K-81" style="edgeStyle=orthogonalEdgeStyle;rounded=0;orthogonalLoop=1;jettySize=auto;html=1;exitX=0;exitY=0.5;exitDx=0;exitDy=0;entryX=0.48;entryY=0.235;entryDx=0;entryDy=0;entryPerimeter=0;" edge="1" parent="V_N-slS19JyeYz-SIt-K-16" source="V_N-slS19JyeYz-SIt-K-50" target="V_N-slS19JyeYz-SIt-K-79">
          <mxGeometry relative="1" as="geometry" />
        </mxCell>
        <mxCell id="V_N-slS19JyeYz-SIt-K-87" style="edgeStyle=orthogonalEdgeStyle;rounded=0;orthogonalLoop=1;jettySize=auto;html=1;entryX=1;entryY=0.5;entryDx=0;entryDy=0;" edge="1" parent="V_N-slS19JyeYz-SIt-K-16" source="V_N-slS19JyeYz-SIt-K-83" target="V_N-slS19JyeYz-SIt-K-86">
          <mxGeometry relative="1" as="geometry" />
        </mxCell>
        <mxCell id="V_N-slS19JyeYz-SIt-K-83" value="Student List Empty" style="strokeWidth=2;html=1;shape=mxgraph.flowchart.decision;whiteSpace=wrap;" vertex="1" parent="V_N-slS19JyeYz-SIt-K-16">
          <mxGeometry x="203" y="472.25" width="100" height="100" as="geometry" />
        </mxCell>
        <mxCell id="V_N-slS19JyeYz-SIt-K-84" style="edgeStyle=orthogonalEdgeStyle;rounded=0;orthogonalLoop=1;jettySize=auto;html=1;exitX=0.5;exitY=0;exitDx=0;exitDy=0;exitPerimeter=0;entryX=-0.011;entryY=0.725;entryDx=0;entryDy=0;entryPerimeter=0;" edge="1" parent="V_N-slS19JyeYz-SIt-K-16" source="V_N-slS19JyeYz-SIt-K-83" target="V_N-slS19JyeYz-SIt-K-17">
          <mxGeometry relative="1" as="geometry" />
        </mxCell>
        <mxCell id="V_N-slS19JyeYz-SIt-K-86" value="" style="ellipse;html=1;shape=endState;fillColor=#000000;strokeColor=#ff0000;" vertex="1" parent="V_N-slS19JyeYz-SIt-K-16">
          <mxGeometry x="63" y="507.25" width="30" height="30" as="geometry" />
        </mxCell>
        <mxCell id="V_N-slS19JyeYz-SIt-K-88" value="END" style="text;html=1;align=center;verticalAlign=middle;resizable=0;points=[];autosize=1;strokeColor=none;fillColor=none;" vertex="1" parent="V_N-slS19JyeYz-SIt-K-16">
          <mxGeometry x="53" y="472" width="50" height="30" as="geometry" />
        </mxCell>
        <mxCell id="V_N-slS19JyeYz-SIt-K-89" style="edgeStyle=orthogonalEdgeStyle;rounded=0;orthogonalLoop=1;jettySize=auto;html=1;entryX=1;entryY=0.5;entryDx=0;entryDy=0;entryPerimeter=0;" edge="1" parent="V_N-slS19JyeYz-SIt-K-16" source="V_N-slS19JyeYz-SIt-K-79" target="V_N-slS19JyeYz-SIt-K-83">
          <mxGeometry relative="1" as="geometry" />
        </mxCell>
        <mxCell id="V_N-slS19JyeYz-SIt-K-90" value="YES" style="text;html=1;align=center;verticalAlign=middle;resizable=0;points=[];autosize=1;strokeColor=none;fillColor=none;" vertex="1" parent="V_N-slS19JyeYz-SIt-K-16">
          <mxGeometry x="123" y="530" width="50" height="30" as="geometry" />
        </mxCell>
        <mxCell id="V_N-slS19JyeYz-SIt-K-92" style="edgeStyle=orthogonalEdgeStyle;rounded=0;orthogonalLoop=1;jettySize=auto;html=1;exitX=0;exitY=0.5;exitDx=0;exitDy=0;entryX=0.32;entryY=0.768;entryDx=0;entryDy=0;entryPerimeter=0;" edge="1" parent="V_N-slS19JyeYz-SIt-K-16" source="V_N-slS19JyeYz-SIt-K-46" target="V_N-slS19JyeYz-SIt-K-79">
          <mxGeometry relative="1" as="geometry" />
        </mxCell>
        <mxCell id="V_N-slS19JyeYz-SIt-K-18" value="" style="edgeStyle=orthogonalEdgeStyle;rounded=0;orthogonalLoop=1;jettySize=auto;html=1;exitX=1;exitY=0.5;exitDx=0;exitDy=0;" edge="1" parent="WIyWlLk6GJQsqaUBKTNV-1" source="V_N-slS19JyeYz-SIt-K-13" target="V_N-slS19JyeYz-SIt-K-17">
          <mxGeometry relative="1" as="geometry">
            <mxPoint x="426" y="247" as="sourcePoint" />
          </mxGeometry>
        </mxCell>
        <mxCell id="V_N-slS19JyeYz-SIt-K-85" value="NO" style="text;html=1;align=center;verticalAlign=middle;resizable=0;points=[];autosize=1;strokeColor=none;fillColor=none;" vertex="1" parent="WIyWlLk6GJQsqaUBKTNV-1">
          <mxGeometry x="260" y="368" width="40" height="30" as="geometry" />
        </mxCell>
      </root>
    </mxGraphModel>
  </diagram>
</mxfile>
